<svg xmlns="http://www.w3.org/2000/svg" viewBox="0 0 512 512" role="img" aria-label="HNL logo">
  <rect x="8" y="8" width="496" height="496" rx="44" fill="#f3f0ea" stroke="#e6e1d8" stroke-width="8"/>
  <path d="M66 94h66v133h101V94h66v324h-66V285H132v133H66z" fill="#12386f"/>
  <path d="M248 94h84l73 150V94h63v324h-63V265l-76 153h-81l92-181z" fill="#12386f"/>
  <path d="M413 94h38c23 0 41 18 41 41v235c0 26-21 48-48 48h-31c-11 0-20-9-20-20V114c0-11 9-20 20-20z" fill="#c9cdd3"/>
  <path d="M421 94h28c20 0 36 16 36 36v240c0 22-18 40-40 40h-24c-8 0-14-6-14-14V108c0-8 6-14 14-14z" fill="none" stroke="#8b919b" stroke-width="6"/>
</svg>
